<svg xmlns="http://www.w3.org/2000/svg" width="1124" height="383" fill="none" viewBox="0 0 1124 383"><g fill="#fff" clip-path="url(#a)"><path d="m910.7.15 140.1 35.77v312l-140.1 34.77h212.64V.15H910.7Z"/><path d="M1017.02 212.28c7.41 0 13.41-6.004 13.41-13.41 0-7.406-6-13.41-13.41-13.41s-13.41 6.004-13.41 13.41c0 7.406 6 13.41 13.41 13.41ZM168.84 182.45 107.65 42.47H61.26L.07 182.45h47.99l9.38-24.4h53.24l9.38 24.4h48.79-.01ZM70.5 124.06 84.05 88.8l13.55 35.26H70.5ZM258.83 182.45l59.19-139.99h-46.39l-34.28 81.69-33.31-81.69h-50.8l59.2 139.99h46.39ZM350.42 182.45l9.38-24.4h53.24l9.38 24.4h48.79L410.02 42.47h-46.39l-61.19 139.98h47.99-.01Zm22.44-58.39 13.55-35.26 13.55 35.26h-27.1ZM616.79 42.46h-46v63.66L517.6 42.46h-38.8v139.99h46v-63.66l53.19 63.66h38.8V42.46ZM881.75 182.45h48.79L869.35 42.47h-46.39l-59.79 136.78v-33.39h-67.1l63.9-74.39v-29H636.59v36.6h61.9l-63.9 74.39v29h175.18l9.38-24.4h53.24l9.38 24.4-.02-.01Zm-49.55-58.39 13.55-35.26 13.55 35.26h-27.1ZM15.25 249.96h47.59v53.19c0 11.6-5.07 17.4-15.2 17.4-3.87 0-7.6-1.17-11.2-3.5-3.6-2.33-7.27-5.77-11-10.3l-25.4 30c5.87 6.8 13.2 11.97 22 15.5 8.8 3.53 18.66 5.3 29.6 5.3 18.8 0 33.13-4.73 43-14.2 9.86-9.46 14.8-23.8 14.8-43v-85.99H15.25v35.6ZM261.02 231.86c-7.07-6.6-15.4-11.7-25-15.3-9.6-3.6-20.13-5.4-31.6-5.4-11.47 0-21.83 1.8-31.5 5.4-9.67 3.6-18.03 8.7-25.1 15.3-7.07 6.6-12.57 14.33-16.5 23.2-3.93 8.87-5.9 18.63-5.9 29.3 0 10.67 1.97 20.27 5.9 29.2 3.93 8.93 9.43 16.7 16.5 23.3 7.07 6.6 15.43 11.7 25.1 15.3 9.66 3.6 20.16 5.4 31.5 5.4s22-1.8 31.6-5.4c9.6-3.6 17.93-8.7 25-15.3 7.06-6.6 12.56-14.36 16.5-23.3 3.93-8.93 5.9-18.66 5.9-29.2s-1.97-20.43-5.9-29.3c-3.93-8.86-9.43-16.6-16.5-23.2Zm-27.6 67.19c-1.6 4.33-3.83 8-6.7 11s-6.2 5.3-10 6.9c-3.8 1.6-7.9 2.4-12.3 2.4s-8.5-.8-12.3-2.4c-3.8-1.6-7.13-3.9-10-6.9-2.87-3-5.1-6.67-6.7-11-1.6-4.33-2.4-9.23-2.4-14.7 0-5.47.8-10.36 2.4-14.7 1.6-4.33 3.83-8 6.7-11s6.2-5.3 10-6.9c3.8-1.6 7.9-2.4 12.3-2.4s8.5.8 12.3 2.4c3.8 1.6 7.13 3.9 10 6.9 2.87 3 5.1 6.67 6.7 11 1.6 4.33 2.4 9.23 2.4 14.7 0 5.47-.8 10.37-2.4 14.7ZM364.53 296.05l-33.32-81.69h-50.79l59.19 139.99h46.4l59.19-139.99h-46.39l-34.28 81.69ZM496.19 300.35h59.2v-33.99h-59.2v-16.4h67.39v-35.6H449.8v139.99h116.38v-35.6h-69.99v-18.4ZM676.37 278.02l-53.19-63.66h-38.8v139.99h45.99v-63.66l53.2 63.66h38.79V214.36h-45.99v63.66Z"/></g><defs><clipPath id="a"><path fill="#fff" d="M0 0h1124v383H0z"/></clipPath></defs></svg>